<?xml version="1.0" standalone="no"?>
<!DOCTYPE svg PUBLIC "-//W3C//DTD SVG 20010904//EN"
 "http://www.w3.org/TR/2001/REC-SVG-20010904/DTD/svg10.dtd">
<svg version="1.0" xmlns="http://www.w3.org/2000/svg"
 width="900.000000pt" height="584.000000pt" viewBox="0 0 900.000000 584.000000"
 preserveAspectRatio="xMidYMid meet">

<g transform="translate(0.000000,584.000000) scale(0.100000,-0.100000)"
fill="#000000" stroke="none">
<path d="M4190 5414 c-380 -48 -720 -185 -1023 -411 -125 -94 -329 -297 -419
-417 -223 -298 -366 -657 -409 -1019 -17 -149 -7 -495 20 -626 74 -372 209
-662 438 -946 45 -55 94 -112 109 -126 l29 -26 334 -6 c183 -4 332 -5 330 -2
-2 2 -40 27 -84 56 -153 99 -331 265 -436 404 -463 613 -456 1468 16 2070 77
98 215 234 313 309 512 390 1208 460 1791 181 l113 -55 332 0 331 1 -60 55
c-414 378 -928 577 -1480 573 -77 -1 -187 -7 -245 -15z"/>
<path d="M6050 3956 c0 -2 7 -20 15 -39 28 -68 74 -242 89 -343 29 -185 18
-470 -25 -644 -69 -281 -212 -548 -402 -755 -264 -287 -590 -465 -981 -535
-105 -20 -153 -21 -936 -20 -454 0 -1031 3 -1284 7 l-458 6 -11 31 c-24 69
-89 185 -137 243 -71 87 -160 157 -265 207 -135 65 -198 80 -350 80 -146 0
-213 -14 -333 -70 -535 -246 -623 -960 -164 -1326 145 -115 302 -170 492 -170
221 -1 409 74 563 227 93 92 158 196 193 309 l18 59 1306 -4 c1423 -4 1345 -7
1586 51 611 148 1137 573 1408 1140 35 74 76 169 91 210 140 394 154 861 38
1278 l-18 62 -217 0 c-120 0 -218 -2 -218 -4z m-4577 -2204 c74 -37 142 -105
179 -180 18 -38 24 -67 26 -149 3 -93 1 -108 -22 -158 -51 -112 -128 -182
-238 -217 -95 -29 -208 -20 -294 25 -61 32 -133 107 -166 175 -30 61 -33 74
-33 162 0 82 4 103 27 152 47 100 137 180 241 214 26 9 74 13 128 11 74 -3 96
-8 152 -35z"/>
</g>
</svg>
