<?xml version="1.0" encoding="utf-8"?>
<!-- Generator: Adobe Illustrator 16.0.0, SVG Export Plug-In . SVG Version: 6.00 Build 0)  -->
<!DOCTYPE svg PUBLIC "-//W3C//DTD SVG 1.1//EN" "http://www.w3.org/Graphics/SVG/1.1/DTD/svg11.dtd">
<svg enable-background="new 0 -11.146 143 154.146" height="154.146px" id="Layer_1" version="1.1" viewBox="0 -11.146 143 154.146"
     width="143px" x="0px" xml:space="preserve" xmlns="http://www.w3.org/2000/svg"
     y="0px">
<g>
	<linearGradient gradientUnits="userSpaceOnUse" id="SVGID_1_" x1="17.8159" x2="164.317" y1="7.5181" y2="125.0644">
		<stop offset="0" style="stop-color:#72142C"/>
    <stop offset="0.4516" style="stop-color:#A60532"/>
    <stop offset="1" style="stop-color:#72142C"/>
	</linearGradient>
  <polygon fill="url(#SVGID_1_)" points="0.1,-11.146 0.1,112.33 71.492,143 142.9,112.33 142.9,-11.146 	"/>
  <g>
		<g>
			<polygon fill="#FFFFFF" points="54.605,22.285 53.049,20.201 51.49,18.117 53.049,19.156 54.605,20.201 56.168,19.156
				57.723,18.117 56.168,20.201 			"/>
      <polygon fill="#FFFFFF" points="45.486,31.293 47.789,32.832 50.089,34.371 52.391,32.832 54.692,31.293 52.391,34.371
				50.089,37.448 47.789,34.371 			"/>
      <polygon fill="#FFFFFF" points="41.085,44.468 44.13,46.506 47.174,48.537 50.22,46.506 53.263,44.468 50.22,48.537
				47.174,52.609 44.13,48.537 			"/>
      <polygon fill="#FFFFFF" points="35.082,57.646 38.87,60.178 42.658,62.71 46.446,60.178 50.231,57.646 46.446,62.71
				42.658,67.773 38.87,62.71 			"/>
      <polygon fill="#FFFFFF" points="88.301,22.285 86.743,20.201 85.185,18.117 86.743,19.156 88.301,20.201 89.862,19.156
				91.42,18.117 89.862,20.201 			"/>
      <polygon fill="#FFFFFF" points="88.22,31.293 90.519,32.832 92.821,34.371 95.124,32.832 97.425,31.293 95.124,34.371
				92.821,37.448 90.519,34.371 			"/>
      <polygon fill="#FFFFFF" points="89.648,44.468 92.69,46.506 95.737,48.537 98.779,46.506 101.825,44.468 98.779,48.537
				95.737,52.609 92.69,48.537 			"/>
      <polygon fill="#FFFFFF" points="66.892,31.293 69.192,32.832 71.496,34.371 73.799,32.832 76.1,31.293 73.799,34.371
				71.496,37.448 69.192,34.371 			"/>
      <polygon fill="#FFFFFF" points="65.408,44.468 68.45,46.506 71.496,48.537 74.542,46.506 77.584,44.468 74.542,48.537
				71.496,52.609 68.45,48.537 			"/>
      <polygon fill="#FFFFFF" points="92.68,57.646 96.465,60.178 100.253,62.71 104.04,60.178 107.829,57.646 104.04,62.71
				100.253,67.773 96.465,62.71 			"/>
		</g>
    <g>
			<path d="M37.08,75.346c0-1.255,0-1.488-0.021-1.75c-0.017-0.279-0.08-0.414-0.354-0.471
				c-0.066-0.018-0.209-0.024-0.321-0.024c-0.092,0-0.144-0.017-0.144-0.073c0-0.06,0.06-0.076,0.184-0.076
				c0.437,0,0.957,0.025,1.203,0.025c0.199,0,0.718-0.025,1.014-0.025c0.125,0,0.18,0.017,0.18,0.076
				c0,0.058-0.046,0.073-0.131,0.073c-0.091,0-0.14,0.009-0.238,0.024c-0.225,0.039-0.29,0.182-0.306,0.471
				c-0.016,0.262-0.016,0.494-0.016,1.75v1.156c0,1.193,0.239,1.698,0.644,2.028c0.37,0.305,0.75,0.337,1.03,0.337
				c0.364,0,0.81-0.117,1.141-0.443c0.451-0.455,0.476-1.197,0.476-2.047v-1.029c0-1.256,0-1.486-0.017-1.752
				c-0.016-0.277-0.082-0.414-0.355-0.469c-0.066-0.018-0.206-0.025-0.296-0.025c-0.092,0-0.139-0.017-0.139-0.074
				c0-0.06,0.058-0.076,0.172-0.076c0.421,0,0.942,0.025,0.95,0.025c0.097,0,0.62-0.025,0.939-0.025
				c0.118,0,0.174,0.017,0.174,0.076c0,0.058-0.049,0.073-0.15,0.073c-0.089,0-0.139,0.009-0.238,0.024
				c-0.224,0.039-0.288,0.182-0.307,0.471c-0.018,0.262-0.018,0.494-0.018,1.75v0.88c0,0.916-0.09,1.892-0.781,2.485
				c-0.585,0.502-1.177,0.592-1.716,0.592c-0.439,0-1.229-0.021-1.831-0.57c-0.419-0.379-0.732-0.986-0.732-2.184V75.346z" fill="#FFFFFF"/>
      <path d="M45.749,78.066c0.018,0.645,0.122,0.861,0.288,0.917c0.139,0.048,0.296,0.058,0.429,0.058
				c0.091,0,0.14,0.016,0.14,0.066c0,0.066-0.072,0.082-0.189,0.082c-0.536,0-0.865-0.021-1.022-0.021
				c-0.075,0-0.463,0.021-0.893,0.021c-0.105,0-0.182-0.008-0.182-0.082c0-0.051,0.052-0.066,0.134-0.066
				c0.108,0,0.254-0.01,0.371-0.043c0.214-0.063,0.246-0.307,0.257-1.021l0.074-4.887c0-0.165,0.021-0.278,0.105-0.278
				c0.091,0,0.166,0.108,0.307,0.257c0.096,0.104,1.353,1.453,2.555,2.646c0.564,0.562,1.678,1.75,1.816,1.879h0.039l-0.082-3.701
				c-0.008-0.504-0.081-0.658-0.278-0.739c-0.125-0.053-0.325-0.053-0.438-0.053c-0.098,0-0.134-0.026-0.134-0.072
				c0-0.066,0.091-0.077,0.217-0.077c0.428,0,0.826,0.026,0.996,0.026c0.091,0,0.403-0.026,0.811-0.026
				c0.105,0,0.19,0.011,0.19,0.077c0,0.046-0.05,0.072-0.152,0.072c-0.08,0-0.146,0-0.242,0.025
				c-0.233,0.064-0.301,0.238-0.308,0.699l-0.093,5.205c0,0.184-0.031,0.255-0.105,0.255c-0.09,0-0.189-0.09-0.278-0.179
				c-0.518-0.496-1.578-1.577-2.435-2.429c-0.898-0.89-1.813-1.917-1.962-2.076h-0.026L45.749,78.066z" fill="#FFFFFF"/>
      <path d="M53.925,75.346c0-1.255,0-1.488-0.018-1.75c-0.016-0.279-0.099-0.422-0.279-0.461
				c-0.091-0.025-0.196-0.034-0.294-0.034c-0.085,0-0.135-0.017-0.135-0.083c0-0.05,0.066-0.066,0.196-0.066
				c0.316,0,0.835,0.025,1.077,0.025c0.204,0,0.69-0.025,1.004-0.025c0.108,0,0.174,0.017,0.174,0.066
				c0,0.066-0.049,0.083-0.133,0.083c-0.083,0-0.147,0.009-0.247,0.024c-0.225,0.039-0.291,0.182-0.307,0.471
				c-0.016,0.262-0.016,0.494-0.016,1.75v1.45c0,0.799,0,1.452,0.031,1.806c0.026,0.223,0.085,0.372,0.332,0.406
				c0.115,0.014,0.295,0.033,0.419,0.033c0.092,0,0.133,0.023,0.133,0.065c0,0.06-0.065,0.083-0.156,0.083
				c-0.546,0-1.064-0.023-1.288-0.023c-0.19,0-0.708,0.023-1.037,0.023c-0.108,0-0.166-0.023-0.166-0.083
				c0-0.042,0.032-0.065,0.133-0.065c0.122,0,0.224-0.021,0.295-0.033c0.165-0.034,0.214-0.174,0.238-0.413
				c0.042-0.349,0.042-1,0.042-1.799V75.346z" fill="#FFFFFF"/>
      <path d="M57.721,73.76c-0.19-0.451-0.331-0.545-0.625-0.623c-0.125-0.035-0.259-0.035-0.323-0.035
				c-0.072,0-0.1-0.026-0.1-0.072c0-0.066,0.093-0.077,0.216-0.077c0.439,0,0.906,0.026,1.196,0.026
				c0.206,0,0.604-0.026,1.014-0.026c0.099,0,0.189,0.019,0.189,0.077c0,0.056-0.047,0.072-0.122,0.072
				c-0.131,0-0.255,0.008-0.322,0.059c-0.056,0.039-0.082,0.1-0.082,0.176c0,0.105,0.075,0.335,0.189,0.634l1.42,3.745h0.031
				c0.356-0.909,1.428-3.565,1.624-4.109c0.042-0.11,0.075-0.233,0.075-0.305c0-0.065-0.034-0.137-0.104-0.158
				c-0.102-0.033-0.228-0.041-0.331-0.041c-0.075,0-0.143-0.011-0.143-0.066c0-0.064,0.075-0.083,0.232-0.083
				c0.412,0,0.758,0.026,0.866,0.026c0.14,0,0.527-0.026,0.775-0.026c0.108,0,0.174,0.019,0.174,0.077
				c0,0.056-0.052,0.072-0.132,0.072c-0.085,0-0.256,0-0.404,0.098c-0.109,0.074-0.232,0.215-0.455,0.744
				c-0.32,0.775-0.543,1.221-0.989,2.234c-0.528,1.205-0.918,2.104-1.096,2.514c-0.216,0.484-0.266,0.611-0.381,0.611
				c-0.106,0-0.157-0.112-0.315-0.501L57.721,73.76z" fill="#FFFFFF"/>
      <path d="M65.277,75.346c0-1.255,0-1.488-0.017-1.75c-0.019-0.279-0.082-0.414-0.355-0.471
				c-0.064-0.018-0.206-0.024-0.319-0.024c-0.094,0-0.143-0.017-0.143-0.073c0-0.06,0.058-0.076,0.182-0.076
				c0.223,0,0.463,0.01,0.669,0.01c0.214,0.007,0.404,0.018,0.517,0.018c0.268,0,1.907,0,2.065-0.011
				c0.157-0.017,0.287-0.031,0.352-0.047c0.043-0.013,0.093-0.037,0.133-0.037c0.045,0,0.053,0.037,0.053,0.077
				c0,0.059-0.043,0.156-0.065,0.534c-0.011,0.083-0.028,0.446-0.041,0.546c-0.012,0.041-0.025,0.09-0.083,0.09
				c-0.061,0-0.074-0.04-0.074-0.114c0-0.059-0.008-0.197-0.049-0.297c-0.062-0.147-0.142-0.249-0.554-0.296
				c-0.141-0.019-1.007-0.034-1.171-0.034c-0.04,0-0.059,0.022-0.059,0.081v2.09c0,0.059,0.009,0.091,0.059,0.091
				c0.18,0,1.129,0,1.319-0.021c0.196-0.014,0.323-0.038,0.4-0.119c0.058-0.066,0.089-0.105,0.13-0.105
				c0.03,0,0.058,0.016,0.058,0.063c0,0.049-0.035,0.182-0.065,0.602c-0.009,0.166-0.032,0.496-0.032,0.554
				c0,0.064,0,0.156-0.075,0.156c-0.057,0-0.075-0.033-0.075-0.074c-0.008-0.082-0.008-0.189-0.036-0.295
				c-0.039-0.164-0.153-0.292-0.46-0.326c-0.156-0.015-0.974-0.021-1.171-0.021c-0.042,0-0.049,0.03-0.049,0.081v0.652
				c0,0.278-0.009,1.039,0,1.279c0.018,0.57,0.148,0.692,0.987,0.692c0.219,0,0.564,0,0.779-0.097
				c0.211-0.102,0.314-0.273,0.371-0.612c0.016-0.091,0.034-0.124,0.09-0.124c0.065,0,0.065,0.064,0.065,0.148
				c0,0.189-0.065,0.749-0.105,0.913c-0.061,0.216-0.134,0.216-0.446,0.216c-0.617,0-1.072-0.018-1.425-0.023
				c-0.359-0.016-0.612-0.022-0.857-0.022c-0.094,0-0.274,0-0.471,0.009c-0.19,0-0.406,0.014-0.57,0.014
				c-0.108,0-0.164-0.022-0.164-0.081c0-0.041,0.032-0.065,0.13-0.065c0.124,0,0.224-0.02,0.297-0.033
				c0.167-0.035,0.206-0.215,0.239-0.455c0.04-0.345,0.04-0.995,0.04-1.756v-1.455H65.277z" fill="#FFFFFF"/>
      <path d="M71.32,75.346c0-1.255,0-1.488-0.021-1.75c-0.016-0.279-0.083-0.414-0.355-0.471
				c-0.063-0.018-0.205-0.024-0.321-0.024c-0.091,0-0.139-0.017-0.139-0.073c0-0.06,0.056-0.076,0.182-0.076
				c0.436,0,0.958,0.025,1.13,0.025c0.278,0,0.905-0.025,1.161-0.025c0.52,0,1.074,0.05,1.52,0.357
				c0.231,0.154,0.561,0.578,0.561,1.128c0,0.612-0.259,1.173-1.09,1.848c0.734,0.926,1.304,1.659,1.791,2.172
				c0.463,0.479,0.799,0.536,0.924,0.559c0.091,0.019,0.166,0.026,0.231,0.026c0.064,0,0.1,0.025,0.1,0.066
				c0,0.066-0.059,0.082-0.153,0.082h-0.788c-0.458,0-0.666-0.041-0.881-0.158c-0.354-0.188-0.67-0.575-1.131-1.213
				c-0.327-0.451-0.705-1.014-0.817-1.14c-0.04-0.044-0.092-0.054-0.147-0.054l-0.716-0.02c-0.044,0-0.066,0.02-0.066,0.067v0.114
				c0,0.77,0,1.419,0.041,1.765c0.025,0.24,0.073,0.421,0.324,0.453c0.12,0.016,0.303,0.034,0.4,0.034
				c0.066,0,0.101,0.024,0.101,0.066c0,0.061-0.059,0.082-0.165,0.082c-0.48,0-1.087-0.021-1.211-0.021
				c-0.155,0-0.68,0.021-1.007,0.021c-0.106,0-0.167-0.021-0.167-0.082c0-0.042,0.033-0.066,0.133-0.066
				c0.125,0,0.224-0.02,0.298-0.034c0.165-0.032,0.205-0.213,0.237-0.453c0.044-0.346,0.044-0.995,0.044-1.756v-1.45H71.32z
				 M72.292,75.997c0,0.089,0.015,0.122,0.072,0.148c0.174,0.056,0.423,0.08,0.627,0.08c0.331,0,0.438-0.031,0.588-0.142
				c0.245-0.18,0.486-0.559,0.486-1.236c0-1.171-0.777-1.507-1.265-1.507c-0.205,0-0.354,0.006-0.437,0.03
				c-0.059,0.019-0.073,0.05-0.073,0.115L72.292,75.997L72.292,75.997z" fill="#FFFFFF"/>
      <path d="M80.882,78.711c0.843,0,1.162-0.206,1.294-0.453c0.076-0.133,0.124-0.28,0.148-0.396
				c0.018-0.082,0.033-0.135,0.083-0.135c0.065,0,0.081,0.061,0.081,0.257c0,0.263-0.105,0.8-0.164,1.006
				c-0.042,0.151-0.099,0.214-0.248,0.214c-1.377,0-2.764-0.037-4.431-0.037c-0.089,0-0.14-0.023-0.14-0.084
				c0-0.062,0.026-0.1,0.124-0.248c1.164-1.814,2.385-3.68,3.488-5.424h-1.617c-0.419,0-0.924,0.026-1.185,0.178
				c-0.274,0.147-0.424,0.453-0.447,0.643c-0.018,0.115-0.049,0.148-0.101,0.148c-0.056,0-0.065-0.041-0.065-0.141
				c0-0.189,0.125-0.939,0.166-1.186c0.018-0.116,0.049-0.159,0.101-0.159c0.074,0,0.123,0.049,0.328,0.058
				c0.784,0.032,1.18,0.025,1.519,0.025h2.516c0.083,0,0.143,0.024,0.143,0.065c0,0.049-0.035,0.099-0.067,0.155
				c-1.14,1.85-2.392,3.737-3.555,5.512h2.029V78.711z" fill="#FFFFFF"/>
      <path d="M85.055,75.346c0-1.255,0-1.488-0.017-1.75c-0.014-0.279-0.099-0.422-0.279-0.461
				c-0.09-0.025-0.197-0.034-0.298-0.034c-0.082,0-0.129-0.017-0.129-0.083c0-0.05,0.063-0.066,0.195-0.066
				c0.313,0,0.835,0.025,1.072,0.025c0.208,0,0.694-0.025,1.006-0.025c0.107,0,0.174,0.017,0.174,0.066
				c0,0.066-0.048,0.083-0.131,0.083c-0.085,0-0.148,0.009-0.247,0.024c-0.227,0.039-0.29,0.182-0.304,0.471
				c-0.02,0.262-0.02,0.494-0.02,1.75v1.45c0,0.799,0,1.452,0.032,1.806c0.024,0.223,0.082,0.372,0.331,0.406
				c0.114,0.014,0.297,0.033,0.418,0.033c0.093,0,0.136,0.023,0.136,0.065c0,0.06-0.068,0.083-0.159,0.083
				c-0.544,0-1.063-0.023-1.286-0.023c-0.189,0-0.711,0.023-1.038,0.023c-0.107,0-0.164-0.023-0.164-0.083
				c0-0.042,0.029-0.065,0.13-0.065c0.125,0,0.226-0.021,0.298-0.033c0.164-0.034,0.215-0.174,0.237-0.413
				c0.041-0.349,0.041-1,0.041-1.799L85.055,75.346L85.055,75.346z" fill="#FFFFFF"/>
      <path d="M90.708,73.412l-1.229,0.036c-0.479,0.015-0.677,0.058-0.799,0.237c-0.084,0.124-0.125,0.225-0.145,0.289
				c-0.012,0.066-0.036,0.098-0.087,0.098c-0.058,0-0.074-0.039-0.074-0.131c0-0.132,0.155-0.882,0.169-0.949
				c0.027-0.108,0.053-0.154,0.103-0.154c0.066,0,0.147,0.082,0.356,0.099c0.237,0.024,0.554,0.04,0.825,0.04h3.266
				c0.264,0,0.444-0.025,0.569-0.04c0.122-0.028,0.19-0.043,0.224-0.043c0.058,0,0.067,0.049,0.067,0.175
				c0,0.172-0.025,0.741-0.025,0.954c-0.011,0.083-0.025,0.133-0.075,0.133c-0.066,0-0.084-0.04-0.092-0.163l-0.01-0.093
				c-0.014-0.214-0.237-0.444-0.971-0.46l-1.043-0.027v3.384c0,0.762,0,1.413,0.046,1.767c0.021,0.23,0.073,0.411,0.317,0.445
				c0.118,0.014,0.298,0.033,0.422,0.033c0.091,0,0.135,0.023,0.135,0.065c0,0.06-0.066,0.083-0.158,0.083
				c-0.544,0-1.064-0.023-1.294-0.023c-0.189,0-0.71,0.023-1.04,0.023c-0.106,0-0.166-0.023-0.166-0.083
				c0-0.042,0.033-0.065,0.134-0.065c0.123,0,0.224-0.021,0.296-0.033c0.167-0.034,0.217-0.216,0.241-0.456
				c0.041-0.345,0.041-0.994,0.041-1.756v-3.384H90.708z" fill="#FFFFFF"/>
      <path d="M96.293,75.346c0-1.255,0-1.488-0.017-1.75c-0.015-0.279-0.082-0.414-0.354-0.471
				c-0.066-0.018-0.205-0.024-0.321-0.024c-0.094,0-0.14-0.017-0.14-0.073c0-0.06,0.056-0.076,0.181-0.076
				c0.222,0,0.463,0.01,0.669,0.01c0.212,0.007,0.404,0.018,0.519,0.018c0.266,0,1.907,0,2.064-0.011
				c0.154-0.017,0.289-0.031,0.355-0.047c0.039-0.013,0.088-0.037,0.13-0.037s0.05,0.037,0.05,0.077
				c0,0.059-0.041,0.156-0.065,0.534c-0.009,0.083-0.024,0.446-0.042,0.546c-0.008,0.041-0.023,0.09-0.081,0.09
				c-0.056,0-0.075-0.04-0.075-0.114c0-0.059-0.008-0.197-0.05-0.297c-0.059-0.147-0.142-0.249-0.551-0.296
				c-0.141-0.019-1.008-0.034-1.171-0.034c-0.042,0-0.06,0.022-0.06,0.081v2.09c0,0.059,0.009,0.091,0.06,0.091
				c0.181,0,1.129,0,1.32-0.021c0.196-0.014,0.316-0.038,0.396-0.119c0.055-0.066,0.09-0.105,0.132-0.105
				c0.033,0,0.057,0.016,0.057,0.063c0,0.049-0.031,0.182-0.066,0.602c-0.007,0.166-0.032,0.496-0.032,0.554
				c0,0.064,0,0.156-0.074,0.156c-0.06,0-0.074-0.033-0.074-0.074c-0.007-0.082-0.007-0.189-0.032-0.295
				c-0.043-0.164-0.154-0.292-0.46-0.326c-0.157-0.015-0.976-0.021-1.173-0.021c-0.041,0-0.049,0.03-0.049,0.081v0.652
				c0,0.278-0.011,1.039,0,1.279c0.016,0.57,0.148,0.692,0.99,0.692c0.214,0,0.563,0,0.774-0.097
				c0.215-0.102,0.313-0.273,0.374-0.612c0.015-0.091,0.029-0.124,0.087-0.124c0.064,0,0.064,0.064,0.064,0.148
				c0,0.189-0.064,0.749-0.104,0.913c-0.061,0.216-0.134,0.216-0.444,0.216c-0.622,0-1.074-0.018-1.427-0.023
				c-0.357-0.016-0.612-0.022-0.859-0.022c-0.093,0-0.274,0-0.473,0.009c-0.188,0-0.404,0.014-0.568,0.014
				c-0.108,0-0.165-0.022-0.165-0.081c0-0.041,0.033-0.065,0.133-0.065c0.122,0,0.223-0.02,0.296-0.033
				c0.166-0.035,0.206-0.215,0.239-0.455c0.041-0.345,0.041-0.995,0.041-1.756v-1.455H96.293z" fill="#FFFFFF"/>
      <path d="M103.433,73.412l-1.231,0.036c-0.479,0.015-0.676,0.058-0.801,0.237
				c-0.083,0.124-0.121,0.225-0.139,0.289c-0.018,0.066-0.041,0.098-0.092,0.098c-0.059,0-0.076-0.039-0.076-0.131
				c0-0.132,0.159-0.882,0.176-0.949c0.023-0.108,0.048-0.154,0.098-0.154c0.064,0,0.149,0.082,0.356,0.099
				c0.239,0.024,0.554,0.04,0.825,0.04h3.268c0.262,0,0.444-0.025,0.568-0.04c0.125-0.028,0.188-0.043,0.224-0.043
				c0.058,0,0.063,0.049,0.063,0.175c0,0.172-0.023,0.741-0.023,0.954c-0.006,0.083-0.022,0.133-0.075,0.133
				c-0.063,0-0.079-0.04-0.088-0.163l-0.008-0.093c-0.019-0.214-0.242-0.444-0.976-0.46l-1.039-0.027v3.384
				c0,0.762,0,1.413,0.041,1.767c0.023,0.23,0.075,0.411,0.323,0.445c0.116,0.014,0.297,0.033,0.417,0.033
				c0.093,0,0.135,0.023,0.135,0.065c0,0.06-0.064,0.083-0.155,0.083c-0.546,0-1.067-0.023-1.295-0.023
				c-0.191,0-0.71,0.023-1.041,0.023c-0.104,0-0.164-0.023-0.164-0.083c0-0.042,0.032-0.065,0.132-0.065
				c0.125,0,0.221-0.021,0.298-0.033c0.163-0.034,0.215-0.216,0.241-0.456c0.039-0.345,0.039-0.994,0.039-1.756L103.433,73.412
				L103.433,73.412z" fill="#FFFFFF"/>
		</g>
    <g>
			<path d="M47.353,101.594c0-1.256,0-1.484-0.019-1.749c-0.016-0.277-0.082-0.411-0.354-0.469
				c-0.065-0.019-0.206-0.026-0.322-0.026c-0.092,0-0.141-0.016-0.141-0.072c0-0.061,0.06-0.076,0.185-0.076
				c0.437,0,0.957,0.025,1.12,0.025c0.405,0,0.725-0.025,1.004-0.025c1.495,0,1.76,0.803,1.76,1.239
				c0,0.676-0.391,1.081-0.841,1.442c0.672,0.232,1.498,0.818,1.498,1.784c0,0.88-0.685,1.798-2.203,1.798
				c-0.1,0-0.339-0.02-0.578-0.025c-0.246-0.017-0.493-0.022-0.616-0.022c-0.091,0-0.273,0-0.471,0.006
				c-0.19,0-0.404,0.017-0.569,0.017c-0.105,0-0.164-0.022-0.164-0.081c0-0.041,0.033-0.063,0.131-0.063
				c0.122,0,0.224-0.018,0.298-0.035c0.163-0.033,0.204-0.213,0.234-0.453c0.046-0.347,0.046-1,0.046-1.757L47.353,101.594
				L47.353,101.594z M48.341,101.734c0,0.066,0.027,0.084,0.059,0.092c0.075,0.015,0.2,0.023,0.389,0.023
				c0.274,0,0.455-0.031,0.594-0.157c0.214-0.171,0.336-0.469,0.336-0.873c0-0.556-0.321-1.277-1.032-1.277
				c-0.115,0-0.187,0-0.271,0.016c-0.057,0.019-0.075,0.05-0.075,0.143V101.734z M49.431,102.395
				c-0.174-0.123-0.362-0.181-0.684-0.193c-0.149-0.012-0.231-0.012-0.354-0.012c-0.034,0-0.052,0.018-0.052,0.056v1.954
				c0,0.547,0.026,0.688,0.289,0.797c0.225,0.088,0.412,0.097,0.604,0.097c0.368,0,0.998-0.198,0.998-1.058
				C50.231,103.527,50.059,102.831,49.431,102.395z" fill="#FFFFFF"/>
      <path d="M54.01,101.594c0-1.256,0-1.484-0.016-1.749c-0.016-0.277-0.083-0.411-0.358-0.469
				c-0.064-0.019-0.204-0.026-0.317-0.026c-0.092,0-0.143-0.016-0.143-0.072c0-0.061,0.059-0.076,0.182-0.076
				c0.225,0,0.461,0.008,0.671,0.008c0.211,0.008,0.402,0.018,0.517,0.018c0.263,0,1.907,0,2.063-0.01
				c0.156-0.016,0.287-0.029,0.352-0.047c0.043-0.01,0.094-0.034,0.136-0.034c0.04,0,0.047,0.034,0.047,0.073
				c0,0.062-0.04,0.158-0.064,0.537c-0.009,0.082-0.025,0.447-0.04,0.546c-0.011,0.038-0.025,0.09-0.085,0.09
				c-0.057,0-0.073-0.044-0.073-0.118c0-0.055-0.008-0.193-0.05-0.295c-0.057-0.146-0.14-0.247-0.553-0.297
				c-0.139-0.016-1.005-0.033-1.171-0.033c-0.041,0-0.059,0.027-0.059,0.083v2.088c0,0.059,0.012,0.091,0.059,0.091
				c0.183,0,1.13,0,1.322-0.018c0.197-0.015,0.32-0.042,0.397-0.125c0.057-0.064,0.089-0.105,0.131-0.105
				c0.033,0,0.059,0.018,0.059,0.066s-0.034,0.182-0.068,0.602c-0.009,0.166-0.032,0.495-0.032,0.555c0,0.064,0,0.154-0.075,0.154
				c-0.056,0-0.071-0.029-0.071-0.072c-0.008-0.082-0.008-0.189-0.034-0.301c-0.041-0.161-0.159-0.284-0.464-0.32
				c-0.156-0.016-0.971-0.022-1.168-0.022c-0.042,0-0.051,0.033-0.051,0.083v0.653c0,0.28-0.007,1.038,0,1.278
				c0.016,0.568,0.148,0.693,0.991,0.693c0.214,0,0.562,0,0.778-0.1c0.21-0.1,0.31-0.273,0.369-0.613
				c0.018-0.088,0.031-0.12,0.091-0.12c0.064,0,0.064,0.064,0.064,0.147c0,0.188-0.064,0.75-0.108,0.914
				c-0.057,0.215-0.129,0.215-0.443,0.215c-0.62,0-1.074-0.02-1.428-0.025c-0.354-0.017-0.609-0.022-0.859-0.022
				c-0.09,0-0.272,0-0.471,0.007c-0.19,0-0.404,0.018-0.567,0.018c-0.11,0-0.166-0.023-0.166-0.083c0-0.04,0.03-0.063,0.13-0.063
				c0.125,0,0.224-0.017,0.296-0.036c0.17-0.031,0.208-0.213,0.242-0.453c0.039-0.347,0.039-0.998,0.039-1.756v-1.457H54.01z" fill="#FFFFFF"/>
      <path d="M59.155,102.319c0-1.409,0.932-3.235,3.404-3.235c2.053,0,3.332,1.201,3.332,3.088
				c0,1.888-1.319,3.384-3.414,3.384C60.106,105.555,59.155,103.778,59.155,102.319z M64.738,102.477
				c0-1.848-1.067-2.993-2.417-2.993c-0.954,0-2.034,0.526-2.034,2.58c0,1.715,0.951,3.077,2.532,3.077
				C63.398,105.141,64.738,104.858,64.738,102.477z" fill="#FFFFFF"/>
      <path d="M73.533,104.887c0,0.222-0.009,0.238-0.108,0.296c-0.539,0.278-1.345,0.372-1.986,0.372
				c-2.024,0-3.815-0.959-3.815-3.235c0-1.32,0.686-2.246,1.436-2.699c0.792-0.474,1.528-0.536,2.22-0.536
				c0.569,0,1.295,0.104,1.461,0.133c0.173,0.036,0.461,0.084,0.651,0.094c0.099,0.006,0.114,0.039,0.114,0.098
				c0,0.092-0.059,0.322-0.059,1.354c0,0.133-0.022,0.174-0.089,0.174c-0.059,0-0.076-0.041-0.083-0.106
				c-0.027-0.191-0.066-0.454-0.28-0.687c-0.247-0.262-0.907-0.643-1.839-0.643c-0.454,0-1.055,0.033-1.633,0.514
				c-0.463,0.384-0.76,1.006-0.76,2.019c0,1.772,1.129,3.103,2.872,3.103c0.214,0,0.502,0,0.701-0.09
				c0.124-0.059,0.155-0.168,0.155-0.307v-0.777c0-0.411,0-0.725-0.006-0.973c-0.009-0.281-0.086-0.41-0.357-0.469
				c-0.066-0.019-0.205-0.024-0.32-0.024c-0.073,0-0.125-0.019-0.125-0.067c0-0.064,0.06-0.082,0.174-0.082
				c0.431,0,0.95,0.025,1.196,0.025c0.257,0,0.693-0.025,0.964-0.025c0.107,0,0.168,0.018,0.168,0.082
				c0,0.049-0.054,0.067-0.107,0.067c-0.067,0-0.125,0.007-0.223,0.024c-0.224,0.039-0.308,0.18-0.315,0.469
				c-0.008,0.248-0.008,0.577-0.008,0.99v0.908H73.533z" fill="#FFFFFF"/>
      <path d="M76.659,101.594c0-1.256,0-1.484-0.018-1.749c-0.015-0.277-0.082-0.411-0.354-0.469
				c-0.065-0.019-0.206-0.026-0.32-0.026c-0.092,0-0.143-0.016-0.143-0.072c0-0.061,0.061-0.076,0.183-0.076
				c0.439,0,0.957,0.025,1.131,0.025c0.281,0,0.908-0.025,1.163-0.025c0.521,0,1.071,0.052,1.517,0.356
				c0.231,0.154,0.563,0.577,0.563,1.132c0,0.609-0.256,1.167-1.09,1.846c0.735,0.923,1.305,1.66,1.791,2.169
				c0.462,0.479,0.801,0.536,0.928,0.562c0.089,0.016,0.162,0.025,0.229,0.025c0.065,0,0.1,0.025,0.1,0.064
				c0,0.064-0.057,0.083-0.155,0.083h-0.787c-0.461,0-0.667-0.04-0.881-0.157c-0.355-0.188-0.668-0.577-1.13-1.211
				c-0.328-0.452-0.71-1.016-0.816-1.138c-0.042-0.052-0.093-0.058-0.147-0.058l-0.72-0.02c-0.04,0-0.064,0.02-0.064,0.066v0.115
				c0,0.766,0,1.418,0.042,1.766c0.022,0.24,0.075,0.422,0.32,0.451c0.123,0.021,0.306,0.036,0.403,0.036
				c0.068,0,0.101,0.024,0.101,0.064c0,0.059-0.059,0.081-0.165,0.081c-0.479,0-1.091-0.022-1.214-0.022
				c-0.155,0-0.674,0.022-1.006,0.022c-0.107,0-0.162-0.022-0.162-0.081c0-0.04,0.031-0.064,0.13-0.064
				c0.123,0,0.222-0.017,0.297-0.036c0.166-0.029,0.208-0.211,0.237-0.451c0.041-0.348,0.041-1,0.041-1.758L76.659,101.594
				L76.659,101.594z M77.634,102.245c0,0.091,0.017,0.126,0.075,0.149c0.171,0.057,0.418,0.082,0.625,0.082
				c0.327,0,0.438-0.031,0.584-0.142c0.249-0.181,0.488-0.559,0.488-1.235c0-1.174-0.777-1.508-1.262-1.508
				c-0.208,0-0.357,0.006-0.437,0.028c-0.061,0.017-0.076,0.05-0.076,0.117v2.508H77.634z" fill="#FFFFFF"/>
      <path d="M84.045,103.285c-0.042,0-0.055,0.019-0.075,0.064l-0.444,1.184c-0.084,0.203-0.124,0.402-0.124,0.504
				c0,0.146,0.075,0.254,0.33,0.254h0.125c0.1,0,0.121,0.016,0.121,0.064c0,0.064-0.047,0.082-0.139,0.082
				c-0.265,0-0.618-0.023-0.874-0.023c-0.089,0-0.548,0.023-0.974,0.023c-0.108,0-0.159-0.018-0.159-0.082
				c0-0.049,0.033-0.064,0.103-0.064c0.075,0,0.188-0.011,0.257-0.017c0.38-0.05,0.533-0.33,0.701-0.741l2.068-5.184
				c0.101-0.239,0.149-0.331,0.231-0.331c0.075,0,0.123,0.077,0.208,0.267c0.195,0.453,1.515,3.818,2.044,5.073
				c0.313,0.745,0.552,0.857,0.728,0.899c0.121,0.023,0.247,0.033,0.345,0.033c0.064,0,0.106,0.01,0.106,0.064
				c0,0.064-0.073,0.083-0.377,0.083c-0.301,0-0.902,0-1.562-0.019c-0.147-0.006-0.246-0.006-0.246-0.064
				c0-0.049,0.032-0.064,0.112-0.074c0.06-0.016,0.117-0.092,0.075-0.188l-0.657-1.749c-0.02-0.041-0.043-0.061-0.084-0.061h-1.84
				V103.285z M85.729,102.875c0.04,0,0.049-0.028,0.04-0.051l-0.744-2.038c-0.006-0.032-0.016-0.074-0.039-0.074
				c-0.025,0-0.041,0.042-0.052,0.074l-0.757,2.028c-0.012,0.032,0,0.061,0.032,0.061H85.729z" fill="#FFFFFF"/>
      <path d="M90.314,101.594c0-1.256,0-1.484-0.015-1.749c-0.021-0.277-0.085-0.411-0.356-0.469
				c-0.065-0.019-0.207-0.026-0.322-0.026c-0.089,0-0.142-0.016-0.142-0.072c0-0.061,0.061-0.076,0.183-0.076
				c0.438,0,0.956,0.025,1.189,0.025c0.253,0,0.775-0.025,1.268-0.025c1.034,0,2.411,0,3.311,0.941
				c0.412,0.428,0.802,1.113,0.802,2.096c0,1.039-0.44,1.832-0.901,2.303c-0.38,0.385-1.237,0.972-2.764,0.972
				c-0.298,0-0.636-0.025-0.948-0.052c-0.315-0.022-0.604-0.047-0.809-0.047c-0.091,0-0.273,0-0.471,0.006
				c-0.19,0-0.402,0.019-0.57,0.019c-0.106,0-0.163-0.024-0.163-0.083c0-0.039,0.033-0.064,0.131-0.064
				c0.123,0,0.221-0.016,0.296-0.033c0.168-0.032,0.206-0.213,0.239-0.453c0.042-0.348,0.042-1,0.042-1.758L90.314,101.594
				L90.314,101.594z M91.348,102.502c0,0.872,0.008,1.51,0.015,1.668c0.008,0.207,0.025,0.534,0.091,0.627
				c0.106,0.157,0.431,0.328,1.083,0.328c0.841,0,1.399-0.168,1.897-0.592c0.526-0.455,0.692-1.205,0.692-2.057
				c0-1.047-0.437-1.722-0.792-2.061c-0.76-0.729-1.7-0.822-2.344-0.822c-0.165,0-0.471,0.021-0.535,0.054
				c-0.074,0.032-0.1,0.075-0.1,0.167c-0.006,0.283-0.006,0.998-0.006,1.65v1.037H91.348z" fill="#FFFFFF"/>
		</g>
    <g>
			<path d="M13.362,84.083c0.042-0.229,0.122-0.356,0.233-0.356c0.108,0,0.191,0.069,0.366,0.424l3.72,7.686
				l3.704-7.78c0.109-0.217,0.176-0.329,0.301-0.329c0.123,0,0.206,0.141,0.246,0.424l1.238,8.42
				c0.125,0.857,0.259,1.25,0.667,1.371c0.396,0.127,0.669,0.139,0.847,0.139c0.123,0,0.218,0.014,0.218,0.096
				c0,0.111-0.162,0.15-0.354,0.15c-0.341,0-2.22-0.039-2.764-0.081c-0.315-0.028-0.397-0.069-0.397-0.151
				c0-0.064,0.058-0.105,0.151-0.15c0.082-0.023,0.124-0.203,0.065-0.583l-0.817-5.993H20.73l-2.966,6.181
				c-0.315,0.644-0.383,0.766-0.506,0.766S17,94.039,16.781,93.631c-0.327-0.629-1.402-2.708-1.567-3.091
				c-0.121-0.286-0.939-2.005-1.416-3.024h-0.056l-0.706,5.42c-0.027,0.246-0.042,0.425-0.042,0.645
				c0,0.258,0.177,0.379,0.408,0.436c0.244,0.055,0.437,0.066,0.572,0.066c0.11,0,0.203,0.025,0.203,0.096
				c0,0.121-0.121,0.15-0.326,0.15c-0.569,0-1.183-0.04-1.429-0.04c-0.258,0-0.913,0.04-1.348,0.04c-0.137,0-0.245-0.029-0.245-0.15
				c0-0.066,0.081-0.096,0.217-0.096c0.11,0,0.203,0,0.41-0.043c0.379-0.08,0.491-0.611,0.558-1.074L13.362,84.083z" fill="#FFFFFF"/>
      <path d="M27.065,87.979c0-2.069,0-2.452-0.025-2.89c-0.027-0.458-0.136-0.68-0.587-0.777
				c-0.109-0.025-0.338-0.039-0.53-0.039c-0.15,0-0.231-0.027-0.231-0.123c0-0.095,0.095-0.123,0.298-0.123
				c0.368,0,0.764,0.016,1.107,0.016c0.354,0.014,0.666,0.025,0.856,0.025c0.437,0,3.146,0,3.406-0.013
				c0.26-0.028,0.477-0.054,0.583-0.081c0.069-0.015,0.151-0.057,0.221-0.057c0.066,0,0.08,0.057,0.08,0.125
				c0,0.096-0.066,0.258-0.106,0.883c-0.016,0.137-0.043,0.737-0.072,0.898c-0.011,0.07-0.04,0.152-0.135,0.152
				c-0.094,0-0.121-0.067-0.121-0.19c0-0.097-0.014-0.329-0.083-0.49c-0.095-0.245-0.231-0.41-0.913-0.491
				c-0.231-0.027-1.662-0.052-1.933-0.052c-0.069,0-0.097,0.038-0.097,0.133v3.446c0,0.098,0.015,0.148,0.097,0.148
				c0.299,0,1.866,0,2.177-0.023c0.328-0.027,0.53-0.068,0.654-0.207c0.097-0.106,0.151-0.178,0.218-0.178
				c0.058,0,0.095,0.027,0.095,0.109s-0.051,0.299-0.106,0.994c-0.014,0.272-0.056,0.818-0.056,0.912c0,0.11,0,0.26-0.121,0.26
				c-0.097,0-0.122-0.057-0.122-0.121c-0.015-0.139-0.015-0.316-0.057-0.492c-0.066-0.271-0.256-0.477-0.762-0.531
				c-0.258-0.027-1.607-0.041-1.934-0.041c-0.068,0-0.082,0.055-0.082,0.138v1.075c0,0.465-0.013,1.717,0,2.113
				c0.026,0.939,0.245,1.143,1.632,1.143c0.357,0,0.928,0,1.28-0.163c0.358-0.163,0.52-0.448,0.613-1.007
				c0.031-0.15,0.057-0.205,0.149-0.205c0.11,0,0.11,0.107,0.11,0.244c0,0.313-0.11,1.24-0.178,1.514
				c-0.095,0.355-0.217,0.355-0.736,0.355c-1.021,0-1.771-0.028-2.357-0.041c-0.587-0.029-1.005-0.04-1.417-0.04
				c-0.146,0-0.445,0-0.774,0.011c-0.314,0-0.666,0.029-0.939,0.029c-0.18,0-0.272-0.04-0.272-0.137
				c0-0.072,0.054-0.109,0.218-0.109c0.204,0,0.366-0.027,0.49-0.053c0.272-0.056,0.339-0.357,0.394-0.752
				c0.067-0.571,0.067-1.646,0.067-2.9L27.065,87.979L27.065,87.979z" fill="#FFFFFF"/>
      <path d="M37.488,84.791l-2.031,0.057c-0.791,0.025-1.115,0.096-1.321,0.395c-0.136,0.201-0.203,0.367-0.231,0.476
				c-0.03,0.108-0.069,0.167-0.152,0.167c-0.093,0-0.123-0.071-0.123-0.219c0-0.223,0.259-1.459,0.287-1.567
				c0.042-0.181,0.083-0.259,0.164-0.259c0.107,0,0.247,0.135,0.586,0.163c0.396,0.04,0.914,0.065,1.363,0.065h5.392
				c0.437,0,0.738-0.041,0.939-0.065c0.208-0.043,0.315-0.069,0.369-0.069c0.096,0,0.111,0.082,0.111,0.285
				c0,0.287-0.045,1.225-0.045,1.582c-0.014,0.137-0.039,0.219-0.122,0.219c-0.105,0-0.135-0.07-0.149-0.273l-0.012-0.15
				c-0.028-0.354-0.396-0.735-1.61-0.763l-1.715-0.04v5.584c0,1.255,0,2.33,0.067,2.915c0.042,0.382,0.124,0.683,0.532,0.739
				c0.19,0.025,0.489,0.054,0.695,0.054c0.148,0,0.218,0.037,0.218,0.108c0,0.098-0.11,0.136-0.258,0.136
				c-0.9,0-1.756-0.038-2.138-0.038c-0.315,0-1.171,0.038-1.717,0.038c-0.178,0-0.274-0.038-0.274-0.136
				c0-0.071,0.057-0.108,0.219-0.108c0.207,0,0.367-0.028,0.489-0.054c0.274-0.057,0.357-0.357,0.396-0.752
				c0.069-0.572,0.069-1.646,0.069-2.9v-5.588H37.488z" fill="#FFFFFF"/>
      <path d="M45.347,87.979c0-2.069,0-2.452-0.029-2.89c-0.024-0.458-0.135-0.68-0.583-0.777
				c-0.108-0.025-0.34-0.039-0.534-0.039c-0.146,0-0.229-0.027-0.229-0.123c0-0.095,0.096-0.123,0.301-0.123
				c0.72,0,1.58,0.041,1.866,0.041c0.46,0,1.499-0.041,1.919-0.041c0.858,0,1.771,0.084,2.508,0.588
				c0.379,0.258,0.925,0.952,0.925,1.865c0,1.009-0.421,1.936-1.798,3.051c1.212,1.525,2.152,2.74,2.957,3.584
				c0.763,0.789,1.323,0.885,1.524,0.924c0.149,0.031,0.274,0.043,0.38,0.043c0.108,0,0.167,0.037,0.167,0.109
				c0,0.107-0.098,0.137-0.261,0.137h-1.296c-0.762,0-1.1-0.07-1.457-0.258c-0.584-0.316-1.102-0.955-1.863-2.004
				c-0.55-0.749-1.174-1.676-1.35-1.879c-0.068-0.08-0.148-0.095-0.248-0.095l-1.186-0.03c-0.067,0-0.105,0.029-0.105,0.109v0.191
				c0,1.268,0,2.343,0.064,2.914c0.041,0.396,0.125,0.696,0.531,0.752c0.205,0.024,0.506,0.053,0.668,0.053
				c0.109,0,0.162,0.037,0.162,0.109c0,0.097-0.095,0.137-0.27,0.137c-0.791,0-1.799-0.04-2.002-0.04c-0.261,0-1.12,0.04-1.663,0.04
				c-0.179,0-0.275-0.04-0.275-0.137c0-0.072,0.057-0.109,0.219-0.109c0.206,0,0.368-0.027,0.491-0.053
				c0.271-0.056,0.337-0.357,0.394-0.752c0.069-0.571,0.069-1.646,0.069-2.9v-2.397H45.347z M46.956,89.055
				c0,0.149,0.025,0.205,0.123,0.245c0.283,0.096,0.694,0.136,1.034,0.136c0.542,0,0.719-0.053,0.965-0.231
				c0.409-0.299,0.803-0.927,0.803-2.044c0-1.934-1.282-2.492-2.085-2.492c-0.338,0-0.583,0.012-0.72,0.054
				c-0.097,0.031-0.123,0.083-0.123,0.19v4.143H46.956z" fill="#FFFFFF"/>
      <path d="M54.091,89.177c0-2.331,1.541-5.338,5.628-5.338c3.388,0,5.503,1.974,5.503,5.093
				s-2.182,5.584-5.637,5.584C55.671,94.517,54.091,91.592,54.091,89.177z M63.313,89.436c0-3.053-1.76-4.942-3.992-4.942
				c-1.565,0-3.35,0.867-3.35,4.263c0,2.836,1.565,5.082,4.183,5.082C61.105,93.838,63.313,93.373,63.313,89.436z" fill="#FFFFFF"/>
      <path d="M68.08,87.979c0-2.069,0-2.452-0.025-2.89c-0.026-0.458-0.139-0.68-0.586-0.777
				c-0.108-0.025-0.34-0.039-0.533-0.039c-0.147,0-0.229-0.027-0.229-0.123c0-0.095,0.093-0.123,0.296-0.123
				c0.725,0,1.582,0.041,1.963,0.041c0.56,0,1.351-0.041,1.977-0.041c1.701,0,2.313,0.571,2.534,0.777
				c0.299,0.285,0.682,0.9,0.682,1.62c0,1.935-1.416,3.3-3.353,3.3c-0.067,0-0.218,0-0.286-0.016
				c-0.069-0.014-0.164-0.023-0.164-0.123c0-0.107,0.094-0.15,0.382-0.15c0.761,0,1.827-0.855,1.827-2.246
				c0-0.447-0.044-1.363-0.805-2.045c-0.492-0.449-1.05-0.529-1.364-0.529c-0.206,0-0.409,0.017-0.531,0.055
				c-0.067,0.025-0.109,0.107-0.109,0.258v5.449c0,1.255,0,2.33,0.069,2.915c0.04,0.382,0.123,0.683,0.53,0.739
				c0.19,0.025,0.489,0.054,0.694,0.054c0.151,0,0.218,0.037,0.218,0.108c0,0.098-0.107,0.136-0.257,0.136
				c-0.898,0-1.758-0.038-2.111-0.038c-0.315,0-1.173,0.038-1.717,0.038c-0.178,0-0.273-0.038-0.273-0.136
				c0-0.071,0.054-0.108,0.221-0.108c0.201,0,0.364-0.028,0.487-0.054c0.27-0.057,0.341-0.357,0.394-0.752
				c0.069-0.572,0.069-1.646,0.069-2.9L68.08,87.979L68.08,87.979z" fill="#FFFFFF"/>
      <path d="M75.517,89.177c0-2.331,1.542-5.338,5.628-5.338c3.392,0,5.502,1.974,5.502,5.093
				s-2.178,5.584-5.638,5.584C77.098,94.517,75.517,91.592,75.517,89.177z M84.741,89.436c0-3.053-1.76-4.942-3.993-4.942
				c-1.564,0-3.351,0.867-3.351,4.263c0,2.836,1.567,5.082,4.18,5.082C82.534,93.838,84.741,93.373,84.741,89.436z" fill="#FFFFFF"/>
      <path d="M91.211,90.377c0,1.743,0,2.681,0.286,2.928c0.232,0.206,0.583,0.303,1.648,0.303
				c0.72,0,1.253-0.016,1.593-0.385c0.162-0.176,0.326-0.559,0.355-0.818c0.015-0.119,0.039-0.203,0.146-0.203
				c0.098,0,0.112,0.07,0.112,0.233c0,0.149-0.098,1.172-0.205,1.565c-0.083,0.299-0.149,0.369-0.858,0.369
				c-0.981,0-1.689-0.028-2.302-0.041c-0.612-0.029-1.103-0.04-1.663-0.04c-0.149,0-0.448,0-0.776,0.011
				c-0.311,0-0.666,0.029-0.941,0.029c-0.175,0-0.271-0.04-0.271-0.137c0-0.072,0.054-0.109,0.217-0.109
				c0.205,0,0.367-0.027,0.489-0.053c0.272-0.056,0.341-0.357,0.396-0.752c0.068-0.571,0.068-1.646,0.068-2.9v-2.397
				c0-2.069,0-2.452-0.027-2.89c-0.026-0.458-0.137-0.68-0.587-0.777c-0.108-0.025-0.272-0.039-0.448-0.039
				c-0.148,0-0.231-0.027-0.231-0.123c0-0.095,0.095-0.123,0.301-0.123c0.641,0,1.497,0.041,1.865,0.041
				c0.326,0,1.319-0.041,1.852-0.041c0.19,0,0.285,0.028,0.285,0.123c0,0.096-0.081,0.123-0.242,0.123
				c-0.152,0-0.37,0.014-0.533,0.039c-0.367,0.069-0.476,0.303-0.503,0.777c-0.026,0.438-0.026,0.82-0.026,2.89V90.377z" fill="#FFFFFF"/>
      <path d="M97.749,87.979c0-2.069,0-2.452-0.028-2.89c-0.027-0.458-0.164-0.695-0.463-0.76
				c-0.149-0.043-0.327-0.057-0.489-0.057c-0.136,0-0.219-0.027-0.219-0.135c0-0.083,0.108-0.111,0.329-0.111
				c0.518,0,1.371,0.041,1.771,0.041c0.338,0,1.143-0.041,1.659-0.041c0.179,0,0.287,0.028,0.287,0.111
				c0,0.105-0.081,0.135-0.218,0.135s-0.246,0.014-0.409,0.039c-0.366,0.069-0.478,0.303-0.503,0.777
				c-0.026,0.438-0.026,0.82-0.026,2.89v2.397c0,1.322,0,2.398,0.054,2.983c0.04,0.366,0.135,0.613,0.544,0.669
				c0.192,0.024,0.49,0.053,0.694,0.053c0.152,0,0.221,0.037,0.221,0.109c0,0.097-0.111,0.137-0.258,0.137
				c-0.902,0-1.761-0.04-2.128-0.04c-0.315,0-1.17,0.04-1.715,0.04c-0.179,0-0.275-0.04-0.275-0.137
				c0-0.072,0.059-0.109,0.221-0.109c0.206,0,0.368-0.027,0.49-0.053c0.271-0.056,0.354-0.289,0.396-0.685
				c0.067-0.571,0.067-1.646,0.067-2.97v-2.396H97.749z" fill="#FFFFFF"/>
      <path d="M105.716,84.791l-2.028,0.057c-0.789,0.025-1.118,0.096-1.322,0.395
				c-0.137,0.201-0.205,0.367-0.231,0.476c-0.025,0.108-0.066,0.167-0.147,0.167c-0.1,0-0.123-0.071-0.123-0.219
				c0-0.223,0.257-1.459,0.285-1.567c0.041-0.181,0.08-0.259,0.162-0.259c0.108,0,0.245,0.135,0.587,0.163
				c0.396,0.04,0.912,0.065,1.361,0.065h5.394c0.436,0,0.736-0.041,0.94-0.065c0.205-0.043,0.313-0.069,0.367-0.069
				c0.095,0,0.111,0.082,0.111,0.285c0,0.287-0.043,1.225-0.043,1.582c-0.015,0.137-0.04,0.219-0.123,0.219
				c-0.107,0-0.135-0.07-0.148-0.273l-0.016-0.15c-0.026-0.354-0.397-0.735-1.607-0.763l-1.717-0.04v5.584
				c0,1.255,0,2.33,0.069,2.915c0.043,0.382,0.121,0.683,0.529,0.739c0.194,0.025,0.491,0.054,0.697,0.054
				c0.146,0,0.217,0.037,0.217,0.108c0,0.098-0.109,0.136-0.26,0.136c-0.898,0-1.758-0.038-2.137-0.038
				c-0.314,0-1.173,0.038-1.717,0.038c-0.176,0-0.272-0.038-0.272-0.136c0-0.071,0.055-0.108,0.219-0.108
				c0.203,0,0.366-0.028,0.487-0.054c0.274-0.057,0.357-0.357,0.396-0.752c0.068-0.572,0.068-1.646,0.068-2.9L105.716,84.791
				L105.716,84.791z" fill="#FFFFFF"/>
      <path d="M113.317,90.771c-0.068,0-0.096,0.027-0.122,0.111l-0.737,1.946c-0.135,0.34-0.202,0.664-0.202,0.83
				c0,0.245,0.123,0.423,0.544,0.423h0.204c0.162,0,0.204,0.025,0.204,0.109c0,0.107-0.082,0.137-0.233,0.137
				c-0.434,0-1.021-0.04-1.442-0.04c-0.149,0-0.897,0.04-1.606,0.04c-0.176,0-0.259-0.029-0.259-0.137
				c0-0.084,0.053-0.109,0.164-0.109c0.122,0,0.314-0.012,0.421-0.027c0.628-0.08,0.887-0.544,1.16-1.226l3.419-8.555
				c0.163-0.395,0.244-0.546,0.379-0.546c0.122,0,0.205,0.126,0.341,0.44c0.327,0.745,2.51,6.306,3.38,8.377
				c0.518,1.224,0.911,1.413,1.2,1.483c0.202,0.041,0.405,0.055,0.569,0.055c0.111,0,0.181,0.011,0.181,0.107
				c0,0.107-0.123,0.138-0.628,0.138c-0.49,0-1.486,0-2.575-0.028c-0.245-0.012-0.407-0.012-0.407-0.107
				c0-0.082,0.052-0.108,0.191-0.121c0.094-0.03,0.19-0.152,0.122-0.316l-1.091-2.885c-0.024-0.071-0.067-0.1-0.137-0.1H113.317
				L113.317,90.771z M116.096,90.093c0.069,0,0.081-0.044,0.069-0.081l-1.227-3.367c-0.015-0.055-0.029-0.121-0.068-0.121
				s-0.068,0.066-0.082,0.121l-1.254,3.353c-0.012,0.054,0,0.096,0.055,0.096H116.096L116.096,90.093z" fill="#FFFFFF"/>
      <path d="M123.068,92.472c0.025,1.064,0.206,1.419,0.48,1.517c0.229,0.082,0.489,0.094,0.705,0.094
				c0.151,0,0.232,0.025,0.232,0.109c0,0.107-0.121,0.137-0.311,0.137c-0.886,0-1.432-0.04-1.692-0.04
				c-0.121,0-0.761,0.04-1.471,0.04c-0.177,0-0.299-0.015-0.299-0.137c0-0.084,0.08-0.109,0.218-0.109
				c0.176,0,0.422-0.012,0.612-0.066c0.355-0.111,0.407-0.505,0.423-1.689l0.122-8.064c0-0.273,0.042-0.465,0.179-0.465
				c0.147,0,0.271,0.178,0.503,0.422c0.164,0.176,2.232,2.398,4.222,4.372c0.927,0.928,2.766,2.888,2.997,3.108h0.065l-0.132-6.119
				c-0.016-0.827-0.139-1.087-0.466-1.225c-0.203-0.082-0.532-0.082-0.722-0.082c-0.164,0-0.218-0.042-0.218-0.123
				c0-0.107,0.149-0.123,0.353-0.123c0.712,0,1.364,0.041,1.649,0.041c0.149,0,0.669-0.041,1.334-0.041
				c0.18,0,0.315,0.016,0.315,0.123c0,0.081-0.08,0.123-0.245,0.123c-0.138,0-0.246,0-0.412,0.039
				c-0.379,0.11-0.489,0.398-0.502,1.16l-0.147,8.598c0,0.299-0.056,0.419-0.181,0.419c-0.148,0-0.313-0.148-0.458-0.298
				c-0.862-0.819-2.604-2.6-4.021-4.006c-1.486-1.473-2.998-3.174-3.242-3.434h-0.041L123.068,92.472z" fill="#FFFFFF"/>
		</g>
	</g>
</g>
</svg>
